<?xml version="1.0" encoding="UTF-8"?>
<svg width="325px" height="116px" viewBox="0 0 325 116" version="1.1" xmlns="http://www.w3.org/2000/svg" xmlns:xlink="http://www.w3.org/1999/xlink">
    <!-- Generator: Sketch 55.2 (78181) - https://sketchapp.com -->
    <title>Dogs Trust Donate</title>
    <desc>Created with Sketch.</desc>
    <g id="Welcome" stroke="none" stroke-width="1" fill="none" fill-rule="evenodd">
        <g id="Desktop-HD" transform="translate(-782.000000, -1915.000000)">
            <g id="Footer" transform="translate(2.000000, 1893.000000)">
                <g id="Dogs-Trust-Donate" transform="translate(780.000000, 22.000000)">
                    <rect id="Rectangle" fill="#FED300" x="0" y="0" width="325" height="116"></rect>
                    <g id="dogsTrust" transform="translate(17.000000, 26.000000)" fill="#000000" fill-rule="nonzero">
                        <path d="M42.9419649,3.91901103 C34.7361612,1.17979361 26.9168627,8.39601153 16.1541782,6.8644061 C5.42122475,5.30334671 -1.11963328,14.5518872 0.15880715,18.4692627 C1.46697876,22.3571842 7.97810561,16.495848 13.894609,22.445546 C19.8111124,28.3952441 27.8682603,30.8988299 30.9305711,27.9828887 C33.9631507,25.0669476 32.119818,22.0331907 36.7876121,20.059776 C41.4554063,18.0863613 44.8150288,12.1072093 45.4988458,9.42689981 C46.2718563,6.42259684 45.8556198,4.8909914 42.9419649,3.91901103 L42.9419649,3.91901103 Z M81.7114143,5.62734017 C77.4895878,8.07201807 83.6439406,10.0454328 85.5170044,14.7875188 C86.5278643,17.3205586 87.2711436,20.6194011 87.3900683,23.4469803 C87.508993,26.1272899 89.0847452,26.8930926 91.463239,23.8887896 C95.417485,18.881618 97.3797424,16.7903875 109.391136,18.7638022 C115.456296,19.7652365 120.837638,16.0834927 122.91882,12.8435581 C123.69183,11.6359461 125.773013,7.12949165 120.272746,7.24730745 C115.57522,7.36512326 113.821081,7.42403116 110.372265,4.71426769 C106.269363,1.47433312 102.196192,-0.0572723182 98.8365699,0.00163558316 C95.9823773,0.0605434845 93.6633458,1.35651732 91.9389378,2.56412929 C88.2225412,5.126623 84.743994,3.86010312 81.7114143,5.62734017 L81.7114143,5.62734017 Z M34.1415377,26.9814544 C31.9711621,31.399547 33.9334195,34.9340211 34.4983118,40.3240941 C35.0929353,45.7141671 31.436001,51.3398716 32.7441726,50.1911676 C34.0523442,49.0424635 37.114655,46.0087066 36.6686874,41.2960745 C36.2227198,36.5834423 33.8739572,30.7810141 34.0523442,29.2788626 C34.2307313,27.7767111 34.1415377,26.9814544 34.1415377,26.9814544 Z M81.6222208,52.930385 C82.0681884,55.9935959 80.7302856,54.8154378 80.6410921,55.4339708 C80.6113609,55.6401484 80.7600168,56.0819577 81.0275973,56.3764972 C81.651952,57.0539381 81.3843714,57.9670106 80.7005544,59.7047936 C79.4518452,62.8563664 77.1625449,65.1243206 75.8543733,63.681077 C75.1705563,62.9447282 73.7137288,64.0934323 72.019052,64.270156 C70.2946439,64.4763337 67.9756125,63.1803598 66.6674409,61.2363991 C65.3592692,59.2924383 64.5267964,57.701925 66.1322797,57.1717539 C67.7674942,56.6415828 63.9916353,54.9627076 63.4862054,53.6078259 C62.9510442,52.2529441 63.9321729,51.4576875 64.8538393,50.3973452 C65.7755057,49.337003 69.1351282,48.129391 71.3946973,48.158845 C80.5221674,48.2177529 81.3546402,50.9864242 81.6222208,52.930385 L81.6222208,52.930385 Z M71.3649662,50.1322597 C70.2054504,50.0438978 68.5999671,51.10424 67.4107202,52.0173125 C65.7457745,53.3132863 71.8109338,52.9892929 72.6136754,51.5460493 C72.9407183,51.0158782 72.0785143,50.1911676 71.3649662,50.1322597 L71.3649662,50.1322597 Z M56.1723368,68.3348012 C57.3021214,68.5998868 56.7372291,68.8944263 56.1426057,68.9533342 C53.8830365,69.1595118 51.1477686,67.9224459 48.0854578,63.2981756 C46.8664797,61.4720307 45.2312652,61.0891293 44.160943,59.8520634 C41.8121803,57.1717539 40.3553529,54.3147207 38.7796007,50.4857071 C36.5200316,44.8894564 39.2255683,49.7199044 40.1472347,50.5740689 C43.0014272,53.1954705 43.4473948,56.523767 45.3501899,58.4677277 C47.252985,60.4116885 49.5125541,60.706228 50.701801,63.2981756 C52.3370155,66.8326497 54.6263158,67.9518998 56.1723368,68.3348012 L56.1723368,68.3348012 Z M88.9063582,27.806165 C88.7577023,29.9563034 89.0252828,32.5777051 88.0441541,34.1976723 C87.0927566,35.8176396 87.0927566,38.7335807 87.1819501,39.6466532 C87.3008748,40.5597257 87.3900683,39.4110216 88.0441541,37.6732385 C88.6982399,35.9354554 89.6496375,34.8751132 90.0658739,32.9016985 C90.5118415,30.9577378 89.0252828,26.1861978 88.9063582,27.806165 Z M82.1871131,34.4627579 C81.1167909,34.7572974 79.6599634,35.9649094 79.8383504,34.6394816 C80.284318,34.0504026 78.4707165,29.8384876 78.9166841,27.5116255 C79.3626517,25.2142174 81.0275973,24.5367765 82.8709301,24.7724081 C84.7142628,25.0080397 86.7062514,27.217086 86.4981332,29.4261323 C86.1116279,33.0784222 83.2574353,34.1682184 82.1871131,34.4627579 L82.1871131,34.4627579 Z M81.6816831,25.5676648 C80.8194791,26.0978359 80.0464686,26.9520005 79.8383504,27.835619 C80.0761998,28.9548691 80.6113609,29.3966784 80.9384038,29.5734021 C81.651952,28.0417966 82.3655001,27.24654 82.7520054,26.9520005 C82.5736183,26.6869149 81.6816831,25.5676648 81.6816831,25.5676648 L81.6816831,25.5676648 Z M55.1020146,3.56556362 C59.7698087,1.79832658 65.5376563,1.44487917 67.7674942,1.88668843 C69.9973322,2.35795164 65.4781939,1.91614238 64.4078717,2.29904374 C62.4158831,3.0353925 66.7269032,3.30047806 69.5513646,4.21355053 C72.375826,5.126623 75.2002875,6.18696523 76.6868461,8.27819573 C76.9544267,8.86727474 74.6353952,6.9822219 70.8892674,5.92187967 C67.1134084,4.86153745 62.2374961,3.94846498 55.2209393,4.47863609 C53.1992195,4.62590584 52.7235208,4.44918214 55.1020146,3.56556362 Z M83.9412523,62.5618269 C83.4655535,61.4131228 82.9303924,64.7119653 82.6628119,65.9195772 C82.0979196,68.452617 80.6410921,69.4245974 79.3923828,69.8958606 C77.9058242,70.1314922 76.3003409,69.5718671 75.4381368,68.6293407 C74.1894276,67.2155511 74.3380834,65.6839456 73.5948041,66.3908405 C72.9109872,67.0388274 72.3460949,67.9224459 70.3838375,69.1889658 C66.3106668,71.8398213 61.4942168,69.8369527 59.8292711,68.8944263 C59.0859918,68.2758933 58.6697553,68.9238802 59.5914217,69.8369527 C62.1185714,72.2521766 65.9241615,73.0179794 68.5999671,72.5172622 C69.9378699,72.2816306 71.5730844,72.1343608 73.0299118,72.1049069 C74.4867393,72.045999 75.8246421,72.0754529 76.5381902,72.1343608 C77.2814696,72.1932687 77.876093,72.1049069 78.4112541,71.9576371 C79.5707699,71.7809134 81.3249091,71.1034726 82.2168443,69.8664066 C84.6845316,66.3319326 84.238564,63.2687217 83.9412523,62.5618269 L83.9412523,62.5618269 Z M56.8264226,32.7544288 C57.2426591,32.1064418 56.9156162,30.7221062 56.7074979,29.9563034 C56.6183044,29.6617639 56.5885732,29.2494086 56.5588421,28.7781454 C56.4399174,27.1876321 56.2912615,24.8018621 53.5559936,23.5647961 C50.1666399,22.0331907 46.9556732,24.8902239 46.0637381,26.6869149 C45.7366952,27.3349018 45.5583081,28.0712506 45.5583081,28.8665073 C45.5583081,29.0726849 45.5583081,29.2788626 45.5880393,29.4850402 C45.7366952,30.8988299 46.6583615,32.4009813 47.9665331,33.2845999 C49.0071242,33.9914947 50.1666399,34.2565802 51.2369621,33.9620407 C53.110026,33.4613236 54.5371223,33.3140538 55.4885199,33.196238 L56.2912615,33.1078762 C56.5291109,33.0489683 56.7074979,32.9311525 56.8264226,32.7544288 L56.8264226,32.7544288 Z M54.8047029,26.3040136 C55.518251,27.3938097 55.5479822,31.3700931 54.5073911,32.1358958 C53.4668001,32.9016985 53.4073378,30.8988299 54.1506171,29.4555863 C54.4181976,28.9548691 54.656047,27.0109084 54.5668535,26.7752768 C54.47766,26.5396452 54.5668535,25.9211122 54.8047029,26.3040136 Z M50.2558334,26.6869149 C49.8990594,27.0109084 49.2449736,27.8945269 48.7692748,29.4555863 C48.3530384,29.3377705 47.6692214,28.9548691 47.1935226,27.9239808 C47.252985,27.0403623 47.9368019,26.1272899 48.799006,25.4793029 C48.799006,25.4793029 50.017984,26.4512833 50.2558334,26.6869149 Z M45.7366952,76.3168218 C34.1712689,71.4863739 27.303368,63.3865375 27.303368,55.0510694 C27.303368,54.4619904 27.3330991,53.9023654 27.3925615,53.3132863 C27.481755,52.4296678 27.9277226,51.10424 28.2844967,50.3089834 C28.4628837,59.469162 35.8064834,68.8355184 46.6880927,73.7543281 L46.6880927,73.7543281 C49.0368553,74.8146704 54.7155094,76.7586311 54.9533587,76.846993 C56.4696486,77.3182562 57.064272,77.436072 57.5399708,77.5833417 C55.9939498,78.61423 50.7612634,78.4375063 45.7366952,76.3168218 Z M111.591243,34.7278435 C121.40253,34.7278435 125.802744,42.5036864 125.802744,53.1071087 C125.802744,64.9475969 121.372799,71.8692753 110.669577,71.8692753 L103.266515,71.8692753 L103.266515,34.7278435 L111.591243,34.7278435 L111.591243,34.7278435 Z M106.834255,68.5409789 L110.164147,68.5409789 C118.578069,68.452617 122.264734,63.7694388 122.264734,52.9892929 C122.264734,43.4756668 118.786187,38.2034096 111.829092,38.0855938 L106.834255,38.0855938 L106.834255,68.5409789 L106.834255,68.5409789 Z M129.816452,58.7033593 C129.816452,48.8362858 134.06801,44.7716406 139.38989,44.7716406 C144.71177,44.7716406 148.963327,48.8362858 148.963327,58.7033593 C148.963327,68.5704328 144.71177,72.635078 139.38989,72.635078 C134.06801,72.635078 129.816452,68.5704328 129.816452,58.7033593 L129.816452,58.7033593 Z M145.603705,58.7033593 C145.603705,54.2263588 144.592845,47.9232134 139.38989,47.9232134 C134.186934,47.9232134 133.176075,54.2263588 133.176075,58.7033593 C133.176075,63.1803598 134.186934,69.4835053 139.38989,69.4835053 C144.592845,69.4835053 145.603705,63.1803598 145.603705,58.7033593 Z M172.272567,47.9232134 L171.023858,47.9232134 C170.07246,47.9232134 169.448105,47.9821213 168.585901,48.4828384 C169.596761,50.1028057 170.07246,51.9584046 170.07246,53.9318193 C170.07246,59.0273528 166.653375,63.0036361 162.015312,63.0036361 C160.617947,63.0036361 159.398969,62.7090966 158.15026,62.1789255 C157.40698,62.8563664 156.098809,63.7105309 156.098809,65.0065048 C156.098809,68.3348012 172.064449,64.1523402 172.064449,74.1372295 C172.064449,76.0811902 171.499556,81 161.926119,81 C154.136551,81 151.698595,77.6717036 151.698595,74.402315 C151.698595,71.6925516 153.868971,70.1904001 155.860959,69.2478737 C154.433863,68.6293407 152.858111,67.4806366 152.858111,65.5661298 C152.858111,63.2392677 154.493325,62.502919 155.860959,60.7356819 C154.136551,58.4971817 153.214885,56.9066683 153.214885,53.8140035 C153.214885,48.4533845 156.871819,44.7421867 161.658538,44.7421867 C163.561333,44.7421867 165.315472,45.3607197 166.861493,46.5977856 C168.437246,45.3018118 170.250847,44.3592853 172.272567,44.5949169 L172.272567,47.9232134 L172.272567,47.9232134 Z M159.4287,70.249308 C157.615099,70.6322094 154.909562,71.8103674 154.909562,74.2255913 C154.909562,77.8484273 159.755743,78.0546049 162.074775,78.0546049 C164.512731,78.0546049 168.79402,77.5244338 168.79402,73.9015979 C168.79402,71.1329265 164.810042,70.8089331 162.996441,70.6616633 L159.4287,70.249308 L159.4287,70.249308 Z M161.718001,47.569766 C158.477303,47.569766 156.425852,50.5740689 156.425852,53.9612733 C156.425852,57.2601157 158.298916,60.1760569 161.420689,60.1760569 C164.899236,60.1760569 166.802031,57.5546552 166.802031,53.9318193 C166.802031,50.4857071 165.107354,47.569766 161.718001,47.569766 Z M188.297669,51.3987795 C186.959766,49.1897332 185.354283,47.9232134 182.827133,47.9232134 C180.627026,47.9232134 178.545844,49.1602793 178.545844,51.8405888 C178.545844,58.291004 191.151862,55.4634247 191.151862,64.3585179 C191.151862,69.5129592 187.82197,72.664532 183.302832,72.664532 C179.43778,72.664532 176.316006,70.8089331 174.38348,67.1271892 L177.059286,65.2715903 C178.367457,67.9813538 180.448639,69.5129592 183.302832,69.5129592 C185.770519,69.5129592 187.970626,68.0402617 187.970626,65.0359587 C187.970626,58.4088198 175.364609,61.5603925 175.364609,52.1056744 C175.364609,47.569766 178.753963,44.8010946 182.678477,44.8010946 C186.008369,44.8010946 188.803099,46.3327 190.646432,49.3959109 L188.297669,51.3987795 L188.297669,51.3987795 Z M215.174649,41.0309889 L206.403953,41.0309889 L206.403953,71.8692753 L199.625246,71.8692753 L199.625246,41.0309889 L190.85455,41.0309889 L190.85455,34.7278435 L215.144918,34.7278435 L215.174649,41.0309889 L215.174649,41.0309889 Z M221.001959,49.8082662 C223.469647,46.5977856 225.461635,44.565463 228.405021,44.565463 L229.623999,44.565463 L229.623999,51.6344112 C229.029376,51.4871414 228.405021,51.3398716 227.750935,51.3398716 C226.115721,51.3398716 220.972228,53.0187468 220.972228,60.117149 L220.972228,71.8692753 L214.550295,71.8692753 L214.550295,45.154542 L220.972228,45.154542 L221.001959,49.8082662 L221.001959,49.8082662 Z M247.046467,69.1006039 C244.995016,70.9562028 242.497597,72.4289003 239.79206,72.4289003 C237.145986,72.4289003 233.429589,70.6616633 233.429589,64.0639783 L233.429589,45.1250881 L239.851523,45.1250881 L239.851523,61.2069451 C239.851523,63.3570835 239.732598,66.7442879 242.497597,66.7442879 C244.370661,66.7442879 245.827489,65.2715903 247.046467,63.8283467 L247.046467,45.1250881 L253.4684,45.1250881 L253.4684,71.8692753 L247.076198,71.8692753 L247.046467,69.1006039 L247.046467,69.1006039 Z M269.136728,52.9598389 C268.839416,51.10424 268.274524,49.7493583 266.371729,49.7493583 C264.855439,49.7493583 263.755386,50.9864242 263.755386,52.7242073 C263.755386,57.3190236 275.499199,53.9612733 275.499199,63.9756165 C275.499199,69.660229 271.21791,72.4289003 266.252804,72.4289003 C261.257967,72.4289003 258.106463,69.7485908 257.452377,64.2112481 L263.487805,63.5043533 C263.60673,65.4188601 264.528396,67.2155511 266.490654,67.2155511 C268.096137,67.2155511 269.612427,66.3908405 269.612427,64.3585179 C269.612427,59.6753397 257.868614,63.5043533 257.868614,53.1071087 C257.868614,47.7170357 262.09044,44.565463 266.787965,44.565463 C271.039523,44.565463 274.458608,47.5108581 275.201887,52.1645823 L269.136728,52.9598389 L269.136728,52.9598389 Z M287.005163,45.154542 L292,45.154542 L292,51.0158782 L287.005163,51.0158782 L287.005163,64.6236034 C287.005163,65.9195772 287.361937,67.245005 289.443119,67.245005 C290.513441,67.245005 291.22699,66.7737418 292,66.2435707 L292,71.6336437 C290.662097,72.0754529 289.264732,72.4583543 287.867367,72.4583543 C283.88339,72.4583543 280.58323,69.9842224 280.58323,64.1523402 L280.58323,51.0158782 L277.580381,51.0158782 L277.580381,45.154542 L280.58323,45.154542 L280.58323,38.4684952 L287.005163,38.4684952 L287.005163,45.154542 L287.005163,45.154542 Z" id="Shape"></path>
                    </g>
                    <path d="M192.769664,14.2440318 L198.526832,14.2745358 C201.535096,14.2745358 204.180255,15.3370804 206.462387,17.4622016 C208.744518,19.5873227 209.885567,22.2004708 209.885567,25.3017241 C209.885567,28.4029775 208.770451,31.061881 206.540186,33.2785146 C204.309921,35.4951481 201.60771,36.6034483 198.433472,36.6034483 L192.738544,36.6034483 C191.472999,36.6034483 190.684638,36.349251 190.373438,35.8408488 C190.124478,35.413791 190,34.7630459 190,33.8885942 L190,16.928382 C190,16.4403159 190.01556,16.0844397 190.04668,15.8607427 C190.0778,15.6370457 190.176345,15.3726806 190.342318,15.0676393 C190.632771,14.5185649 191.441879,14.2440318 192.769664,14.2440318 Z M198.526832,31.204244 C200.020591,31.204244 201.369103,30.6602619 202.572409,29.5722812 C203.775715,28.4843005 204.377358,27.1167191 204.377358,25.469496 C204.377358,23.8222729 203.791274,22.4445237 202.619088,21.3362069 C201.446903,20.2278901 200.072457,19.6737401 198.495712,19.6737401 L195.508209,19.6737401 L195.508209,31.204244 L198.526832,31.204244 Z M222.613575,14 C225.68408,14 228.349985,15.0879644 230.61137,17.2639257 C232.872755,19.4398871 234.003431,22.1394622 234.003431,25.3627321 C234.003431,28.586002 232.924621,31.3313326 230.766969,33.5988064 C228.609317,35.8662801 225.953785,37 222.800294,37 C219.646803,37 216.965338,35.881532 214.75582,33.6445623 C212.546301,31.4075927 211.441558,28.7436052 211.441558,25.6525199 C211.441558,23.9646246 211.752754,22.3835175 212.375153,20.9091512 C212.997553,19.4347848 213.827406,18.1993861 214.864739,17.2029178 C215.902072,16.2064495 217.094986,15.4235219 218.443519,14.8541114 C219.792051,14.284701 221.182056,14 222.613575,14 Z M216.949767,25.5 C216.949767,27.3099118 217.546225,28.7791721 218.739157,29.9078249 C219.93209,31.0364778 221.265042,31.6007958 222.738054,31.6007958 C224.211067,31.6007958 225.538833,31.0517296 226.721392,29.9535809 C227.903951,28.8554322 228.495222,27.3810879 228.495222,25.530504 C228.495222,23.67992 227.898764,22.1954079 226.705832,21.0769231 C225.512899,19.9584383 224.179947,19.3992042 222.706935,19.3992042 C221.233922,19.3992042 219.906156,19.9635222 218.723597,21.0921751 C217.541038,22.2208279 216.949767,23.6900882 216.949767,25.5 Z M250.745896,15.2201592 C250.953362,14.8541096 251.254184,14.6100802 251.64837,14.4880637 C252.042557,14.3660471 252.535283,14.3050398 253.126562,14.3050398 C253.717842,14.3050398 254.195008,14.3558792 254.558074,14.4575597 C254.92114,14.5592401 255.190843,14.6812548 255.367189,14.8236074 C255.543536,14.96596 255.673201,15.1794858 255.756187,15.464191 C255.880667,15.7895684 255.942906,16.3081308 255.942906,17.0198939 L255.942906,33.9496021 C255.942906,34.4376682 255.927346,34.7935444 255.896226,35.0172414 C255.865106,35.2409383 255.766561,35.5053035 255.600588,35.8103448 C255.310135,36.3594192 254.501028,36.6339523 253.173242,36.6339523 C252.364122,36.6339523 251.803971,36.5729449 251.492771,36.4509284 C251.181572,36.3289119 250.922242,36.1357219 250.714776,35.8713528 C246.046779,29.7705265 242.97632,25.7847132 241.503308,23.9137931 L241.503308,33.9496021 C241.503308,34.4376682 241.487748,34.7935444 241.456628,35.0172414 C241.425508,35.2409383 241.326963,35.5053035 241.16099,35.8103448 C240.870537,36.3594192 240.061429,36.6339523 238.733644,36.6339523 C237.447351,36.6339523 236.65899,36.3594192 236.368537,35.8103448 C236.202564,35.5053035 236.104019,35.2307705 236.072899,34.9867374 C236.041779,34.7427044 236.026219,34.3868282 236.026219,33.9190981 L236.026219,16.897878 C236.026219,16.1251067 236.124764,15.5607887 236.321857,15.2049072 C236.518951,14.8490256 236.814586,14.6100802 237.208772,14.4880637 C237.602959,14.3660471 238.111244,14.3050398 238.733644,14.3050398 C239.356043,14.3050398 239.848769,14.3609632 240.211835,14.4728117 C240.574902,14.5846602 240.829044,14.7117588 240.974271,14.8541114 C241.057258,14.9151197 241.295841,15.1794848 241.690027,15.6472149 C246.067571,21.483672 248.992805,25.3373028 250.465817,27.2082228 L250.465817,16.897878 C250.465817,16.1251067 250.559176,15.5658726 250.745896,15.2201592 Z M271.596177,15.8607427 L279.99853,32.8819629 C280.351223,33.5733898 280.527567,34.0919523 280.527567,34.4376658 C280.527567,35.1697649 279.925923,35.8306779 278.722617,36.4204244 C278.017231,36.7661379 277.462266,36.938992 277.057706,36.938992 C276.653147,36.938992 276.321205,36.847481 276.061872,36.6644562 C275.802539,36.4814314 275.615822,36.2882415 275.501715,36.0848806 C275.387609,35.8815198 275.226825,35.576483 275.019358,35.1697613 L273.401127,31.8753316 L264.780936,31.8753316 L263.162705,35.1697613 C262.955239,35.576483 262.794455,35.8713519 262.680348,36.0543767 C262.566241,36.2374014 262.379524,36.4255074 262.120191,36.6187003 C261.860858,36.8118931 261.528917,36.9084881 261.124357,36.9084881 C260.719797,36.9084881 260.164832,36.7356339 259.459446,36.3899204 C258.25614,35.82051 257.654496,35.1697649 257.654496,34.4376658 C257.654496,34.0919523 257.83084,33.5733898 258.183533,32.8819629 L266.585886,15.8302387 C266.814099,15.3625087 267.1616,14.9862967 267.6284,14.7015915 C268.0952,14.4168863 268.587925,14.2745358 269.106592,14.2745358 C270.226911,14.2745358 271.056764,14.8032662 271.596177,15.8607427 Z M269.075472,23.1816976 L267.021563,27.3607427 L271.1605,27.3607427 L269.075472,23.1816976 Z M277.913502,14.2440318 L295.216123,14.2440318 C295.880016,14.2440318 296.367555,14.320291 296.678755,14.4728117 C296.989955,14.6253323 297.197418,14.8642778 297.301152,15.1896552 C297.404885,15.5150326 297.456751,15.942084 297.456751,16.4708223 C297.456751,16.9995606 297.404885,17.421528 297.301152,17.7367374 C297.197418,18.0519468 297.021075,18.2705564 296.772115,18.3925729 C296.398675,18.5755977 295.869643,18.6671088 295.185004,18.6671088 L289.241117,18.6671088 L289.241117,34.0106101 C289.241117,34.4783401 289.225558,34.8240484 289.194438,35.0477454 C289.163318,35.2714423 289.069959,35.5307235 288.914359,35.8255968 C288.758759,36.1204701 288.48387,36.3289119 288.089684,36.4509284 C287.695497,36.5729449 287.176839,36.6339523 286.533693,36.6339523 C285.890546,36.6339523 285.377075,36.5729449 284.993261,36.4509284 C284.609448,36.3289119 284.339746,36.1204701 284.184146,35.8255968 C284.028546,35.5307235 283.935188,35.2663584 283.904068,35.0324934 C283.872948,34.7986284 283.857388,34.4478361 283.857388,33.9801061 L283.857388,18.6671088 L277.882382,18.6671088 C277.218489,18.6671088 276.73095,18.5908496 276.41975,18.4383289 C276.10855,18.2858083 275.901087,18.0468628 275.797354,17.7214854 C275.69362,17.396108 275.641754,16.9690566 275.641754,16.4403183 C275.641754,15.91158 275.69362,15.4896125 275.797354,15.1744032 C275.901087,14.8591938 276.077431,14.6405842 276.326391,14.5185676 C276.69983,14.3355429 277.228862,14.2440318 277.913502,14.2440318 Z M304.67655,31.234748 L314.261456,31.234748 C314.738629,31.234748 315.096503,31.2499998 315.335089,31.280504 C315.573676,31.3110081 315.848565,31.4076031 316.159765,31.5702918 C316.719924,31.854997 317,32.6480925 317,33.9496021 C317,35.3731282 316.616193,36.2068953 315.848567,36.4509284 C315.495873,36.5729449 314.956469,36.6339523 314.230336,36.6339523 L301.906886,36.6339523 C300.45462,36.6339523 299.60402,36.2475724 299.35506,35.4748011 C299.23058,35.1494237 299.168341,34.6308612 299.168341,33.9190981 L299.168341,16.9588859 C299.168341,15.9217455 299.365431,15.215077 299.759618,14.8388594 C300.153804,14.4626418 300.900672,14.2745358 302.000245,14.2745358 L314.261456,14.2745358 C314.738629,14.2745358 315.096503,14.2897876 315.335089,14.3202918 C315.573676,14.3507959 315.848565,14.4473909 316.159765,14.6100796 C316.719924,14.8947848 317,15.6878803 317,16.9893899 C317,18.412916 316.616193,19.2466831 315.848567,19.4907162 C315.495873,19.6127327 314.956469,19.6737401 314.230336,19.6737401 L304.67655,19.6737401 L304.67655,22.7546419 L310.838275,22.7546419 C311.315448,22.7546419 311.673322,22.7698937 311.911909,22.8003979 C312.150495,22.830902 312.425384,22.927497 312.736584,23.0901857 C313.296744,23.3748909 313.576819,24.1679864 313.576819,25.469496 C313.576819,26.8930221 313.182639,27.7267892 312.394266,27.9708223 C312.041573,28.0928388 311.502168,28.1538462 310.776035,28.1538462 L304.67655,28.1538462 L304.67655,31.234748 Z" id="DONATE" fill="#000000" fill-rule="nonzero"></path>
                </g>
            </g>
        </g>
    </g>
</svg>