<?xml version="1.0" encoding="UTF-8"?>
<svg width="42px" height="42px" viewBox="0 0 42 42" version="1.1" xmlns="http://www.w3.org/2000/svg" xmlns:xlink="http://www.w3.org/1999/xlink">
    <!-- Generator: Sketch 55.2 (78181) - https://sketchapp.com -->
    <title>f_logo_RGB-Black_1024</title>
    <desc>Created with Sketch.</desc>
    <defs>
        <polygon id="path-1" points="0.0024609375 0.0016502947 42 0.0016502947 42 41.9909234 0.0024609375 41.9909234"></polygon>
    </defs>
    <g id="Welcome" stroke="none" stroke-width="1" fill="#ffffff" fill-rule="evenodd">
        <g id="Desktop-HD" transform="translate(-133.000000, -2007.000000)">
            <g id="Footer" transform="translate(2.000000, 1893.000000)">
                <g id="f_logo_RGB-Black_1024" transform="translate(131.000000, 114.000000)">
                    <g id="Group-3">
                        <mask id="mask-2" fill="white">
                            <use xlink:href="#path-1"></use>
                        </mask>
                        <g id="Clip-2"></g>
                        <path d="M42,21.1237721 C42,9.45742633 32.5979883,0 21,0 C9.40201172,0 0,9.45742633 0,21.1237721 C0,31.6672574 7.67939648,40.4062279 17.71875,41.9909234 L17.71875,27.2298625 L12.3867188,27.2298625 L12.3867188,21.1237721 L17.71875,21.1237721 L17.71875,16.4699411 C17.71875,11.1757957 20.8539023,8.25147348 25.6507617,8.25147348 C27.948334,8.25147348 30.3515625,8.66404715 30.3515625,8.66404715 L30.3515625,13.8624754 L27.7035117,13.8624754 C25.0947949,13.8624754 24.28125,15.49078 24.28125,17.1612908 L24.28125,21.1237721 L30.1054688,21.1237721 L29.1744141,27.2298625 L24.28125,27.2298625 L24.28125,41.9909234 C34.3206035,40.4062279 42,31.6672574 42,21.1237721" id="Fill-1" fill="#FFFFFF" mask="url(#mask-2)"></path>
                    </g>
                    <path d="M29.7886085,26.8643332 L30.705119,20.7102708 L24.9718818,20.7102708 L24.9718818,16.7166586 C24.9718818,15.0330236 25.7727181,13.3919264 28.3406835,13.3919264 L30.9473684,13.3919264 L30.9473684,8.15265713 C30.9473684,8.15265713 28.5816813,7.73684211 26.32,7.73684211 C21.5980735,7.73684211 18.5118962,10.684139 18.5118962,16.0198774 L18.5118962,20.7102708 L13.2631579,20.7102708 L13.2631579,26.8643332 L18.5118962,26.8643332 L18.5118962,41.7413631 C19.564349,41.9114314 20.6430454,42 21.741889,42 C22.8407325,42 23.919429,41.9114314 24.9718818,41.7413631 L24.9718818,26.8643332 L29.7886085,26.8643332" id="Fill-4"></path>
                </g>
            </g>
        </g>
    </g>
</svg>