<?xml version="1.0" encoding="UTF-8"?>
<svg width="660px" height="660px" viewBox="0 0 660 660" version="1.1" xmlns="http://www.w3.org/2000/svg" xmlns:xlink="http://www.w3.org/1999/xlink">
    <!-- Generator: Sketch 55.2 (78181) - https://sketchapp.com -->
    <title>Group</title>
    <desc>Created with Sketch.</desc>
    <g id="Page-1" stroke="none" stroke-width="1" fill="none" fill-rule="evenodd">
        <g id="Logo-Light" transform="translate(-94.000000, -68.000000)">
            <g id="Group" transform="translate(102.000000, 76.000000)">
                <circle id="Oval" stroke="#0094FF" stroke-width="16" fill-rule="nonzero" cx="322" cy="322" r="322"></circle>
                <g id="Logo" transform="translate(136.000000, 77.000000)" fill="#0094FF">
                    <path d="M5.10211031,443.92777 C3.43776946,441.87935 2.60561151,440.039001 2.60561151,438.406667 C2.60561151,436.774332 3.98187273,434.613922 6.73443645,431.925372 C8.3347642,430.389057 10.0310862,429.620911 11.8234532,429.620911 C13.6158203,429.620911 16.1122941,431.221215 19.3129496,434.421871 C20.2091332,435.510093 21.4893762,436.550291 23.153717,437.542494 C24.8180579,438.534697 26.3543495,439.030791 27.7626379,439.030791 C33.7158571,439.030791 36.6924221,436.59833 36.6924221,431.733333 C36.6924221,430.261032 35.8762672,429.028798 34.2439329,428.036595 C32.6115986,427.044392 30.5792128,426.324255 28.1467146,425.876163 C25.7142165,425.428071 23.0897183,424.707935 20.2731415,423.715731 C17.4565647,422.723528 14.8320665,421.555306 12.3995683,420.211031 C9.96707017,418.866756 7.93468442,416.738352 6.30235012,413.825755 C4.67001582,410.913159 3.85386091,407.408494 3.85386091,403.311655 C3.85386091,397.678501 5.95025881,392.765569 10.1431175,388.57271 C14.3359762,384.379851 20.0490606,382.283453 27.282542,382.283453 C31.1233286,382.283453 34.6279937,382.779547 37.7966427,383.771751 C40.9652916,384.763954 43.1577077,385.772145 44.3739568,386.796355 L46.7744365,388.620719 C48.7588429,390.4771 49.7510312,392.045397 49.7510312,393.325659 C49.7510312,394.605922 48.9828854,396.366256 47.4465707,398.606715 C45.270125,401.80737 43.0296998,403.407674 40.7252278,403.407674 C39.3809525,403.407674 37.7166366,402.767552 35.7322302,401.48729 C35.5401909,401.359264 35.172121,401.039203 34.6280096,400.527098 C34.0838982,400.014993 33.587804,399.598914 33.1397122,399.278849 C31.7954369,398.446678 30.0831119,398.0306 28.0026859,398.0306 C25.9222598,398.0306 24.1939317,398.526694 22.8176499,399.518897 C21.441368,400.5111 20.7532374,401.887361 20.7532374,403.647722 C20.7532374,405.408082 21.5693923,406.832353 23.2017266,407.920576 C24.8340609,409.008798 26.8664467,409.744938 29.2989448,410.129017 C31.731443,410.513095 34.3879472,411.105208 37.2685372,411.905372 C40.1491271,412.705536 42.8056313,413.681721 45.2381295,414.833957 C47.6706277,415.986193 49.7030134,417.986572 51.3353477,420.835156 C52.967682,423.683739 53.7838369,427.188404 53.7838369,431.349257 C53.7838369,435.510109 52.951679,439.174804 51.2873381,442.343453 C49.6229973,445.512102 47.4465842,447.960567 44.7580336,449.688921 C39.5729717,453.081616 34.0359207,454.777938 28.1467146,454.777938 C25.1380985,454.777938 22.2895578,454.409868 19.6010072,453.673717 C16.9124566,452.937566 14.7360435,452.025393 13.0717026,450.93717 C9.67900782,448.888751 7.31055828,446.904374 5.96628297,444.983981 L5.10211031,443.92777 Z M104.001871,435.382062 L105.730216,434.133813 C107.906662,432.853551 109.442953,432.213429 110.339137,432.213429 C112.323543,432.213429 114.46795,434.005769 116.772422,437.590504 C118.18071,439.830962 118.884844,441.623303 118.884844,442.967578 C118.884844,444.311853 118.452762,445.432066 117.588585,446.328249 C116.724408,447.224433 115.716217,448.024585 114.563981,448.728729 C113.411745,449.432873 112.307535,450.105001 111.251319,450.745132 C110.195103,451.385263 108.034693,452.217421 104.770024,453.241631 C101.505355,454.26584 98.352757,454.777938 95.3121343,454.777938 C92.2715116,454.777938 89.1989284,454.377862 86.0942926,453.577698 C82.9896567,452.777534 79.7890493,451.433279 76.4923741,449.544892 C73.1956989,447.656505 70.235137,445.352068 67.6105995,442.631511 C64.986062,439.910954 62.825652,436.422291 61.1293046,432.16542 C59.4329571,427.908548 58.5847962,423.28367 58.5847962,418.290647 C58.5847962,413.297625 59.4169541,408.768765 61.081295,404.703933 C62.7456358,400.6391 64.8740398,397.278463 67.4665707,394.621918 C70.0591017,391.965374 73.0196636,389.740952 76.3483453,387.948585 C82.6216301,384.491877 88.9268268,382.763549 95.2641247,382.763549 C98.2727409,382.763549 101.329321,383.227637 104.433957,384.155827 C107.538593,385.084017 109.891039,386.028197 111.491367,386.988393 L113.795827,388.332662 C114.948063,389.036806 115.844233,389.612915 116.484365,390.061007 C118.148705,391.405283 118.980863,392.925571 118.980863,394.621918 C118.980863,396.318266 118.308736,398.094603 116.96446,399.950983 C114.467949,403.407691 112.227524,405.136019 110.243118,405.136019 C109.090882,405.136019 107.458572,404.431886 105.346139,403.023597 C102.657588,400.847151 99.0729081,399.758945 94.5919904,399.758945 C90.4311383,399.758945 86.3343607,401.199218 82.3015348,404.079808 C80.3811415,405.488097 78.7808377,407.472473 77.5005755,410.032998 C76.2203133,412.593522 75.5801918,415.490072 75.5801918,418.722734 C75.5801918,421.955396 76.2203133,424.851946 77.5005755,427.41247 C78.7808377,429.972994 80.4131476,431.989377 82.397554,433.461679 C86.3023537,436.278255 90.3671252,437.686523 94.5919904,437.686523 C96.5763968,437.686523 98.4487522,437.430474 100.209113,436.918369 C101.969473,436.406264 103.233713,435.894167 104.001871,435.382062 Z M168.718801,386.028201 C169.230906,385.068005 170.09507,384.395877 171.311319,384.011799 C172.527568,383.62772 174.06386,383.435683 175.92024,383.435683 C177.77662,383.435683 179.248899,383.595714 180.337122,383.915779 C181.425345,384.235845 182.257503,384.619918 182.833621,385.06801 C183.409739,385.516101 183.857824,386.156223 184.17789,386.988393 C184.497955,388.076616 184.657986,389.740932 184.657986,391.981391 L184.657986,445.272038 C184.657986,446.74434 184.609976,447.848549 184.513957,448.5847 C184.417937,449.320851 184.113879,450.169012 183.601775,451.129209 C182.705591,452.857563 180.209117,453.721727 176.112278,453.721727 C171.63136,453.721727 169.006862,452.537502 168.238705,450.169017 C167.854626,449.080794 167.66259,447.416478 167.66259,445.176019 L167.66259,425.684125 L142.217506,425.684125 L142.217506,445.272038 C142.217506,446.74434 142.169497,447.848549 142.073477,448.5847 C141.977458,449.320851 141.6734,450.169012 141.161295,451.129209 C140.265111,452.857563 137.768638,453.721727 133.671799,453.721727 C129.190881,453.721727 126.566383,452.537502 125.798225,450.169017 C125.414147,449.080794 125.22211,447.416478 125.22211,445.176019 L125.22211,391.885372 C125.22211,390.41307 125.270119,389.308861 125.366139,388.57271 C125.462159,387.836559 125.766216,386.988398 126.278321,386.028201 C127.174505,384.299847 129.670979,383.435683 133.767818,383.435683 C138.248735,383.435683 140.90524,384.619908 141.73741,386.988393 C142.057476,388.076616 142.217506,389.740932 142.217506,391.981391 L142.217506,411.569305 L167.66259,411.569305 L167.66259,391.885372 C167.66259,390.41307 167.710599,389.308861 167.806619,388.57271 C167.902638,387.836559 168.206696,386.988398 168.718801,386.028201 Z M225.37012,382.571511 C234.84406,382.571511 243.069621,385.996161 250.04705,392.845564 C257.024479,399.694966 260.513141,408.192579 260.513141,418.338657 C260.513141,428.484735 257.18451,437.126375 250.527146,444.263837 C243.869783,451.401299 235.676228,454.969976 225.946235,454.969976 C216.216242,454.969976 207.942672,451.449308 201.125276,444.407866 C194.30788,437.366424 190.899233,428.980832 190.899233,419.250839 C190.899233,413.937751 191.859415,408.960807 193.779808,404.319856 C195.700201,399.678906 198.260687,395.790168 201.461343,392.653525 C204.661998,389.516883 208.342697,387.052415 212.503549,385.260048 C216.664401,383.467681 220.953215,382.571511 225.37012,382.571511 Z M207.894628,418.770743 C207.894628,424.46791 209.734978,429.092788 213.415731,432.645516 C217.096485,436.198243 221.209266,437.97458 225.754197,437.97458 C230.299127,437.97458 234.395905,436.246252 238.044652,432.789544 C241.6934,429.332836 243.517746,424.691956 243.517746,418.866763 C243.517746,413.04157 241.677397,408.368683 237.996643,404.847962 C234.315889,401.327241 230.203108,399.566906 225.658177,399.566906 C221.113247,399.566906 217.016469,401.343244 213.367722,404.895971 C209.718975,408.448699 207.894628,413.073577 207.894628,418.770743 Z M299.784988,382.571511 C309.258928,382.571511 317.484489,385.996161 324.461918,392.845564 C331.439347,399.694966 334.92801,408.192579 334.92801,418.338657 C334.92801,428.484735 331.599378,437.126375 324.942014,444.263837 C318.284651,451.401299 310.091096,454.969976 300.361103,454.969976 C290.63111,454.969976 282.35754,451.449308 275.540144,444.407866 C268.722748,437.366424 265.314101,428.980832 265.314101,419.250839 C265.314101,413.937751 266.274283,408.960807 268.194676,404.319856 C270.11507,399.678906 272.675556,395.790168 275.876211,392.653525 C279.076867,389.516883 282.757565,387.052415 286.918417,385.260048 C291.079269,383.467681 295.368083,382.571511 299.784988,382.571511 Z M282.309496,418.770743 C282.309496,424.46791 284.149846,429.092788 287.8306,432.645516 C291.511353,436.198243 295.624134,437.97458 300.169065,437.97458 C304.713996,437.97458 308.810773,436.246252 312.45952,432.789544 C316.108268,429.332836 317.932614,424.691956 317.932614,418.866763 C317.932614,413.04157 316.092265,408.368683 312.411511,404.847962 C308.730757,401.327241 304.617976,399.566906 300.073046,399.566906 C295.528115,399.566906 291.431337,401.343244 287.78259,404.895971 C284.133843,408.448699 282.309496,413.073577 282.309496,418.770743 Z M358.164652,439.606906 L384.281871,439.606906 C386.394303,439.606906 387.930595,439.846952 388.890791,440.32705 C389.850988,440.807149 390.49111,441.559291 390.811175,442.583501 C391.131241,443.607711 391.291271,444.967969 391.291271,446.664317 C391.291271,448.360664 391.131241,449.720922 390.811175,450.745132 C390.49111,451.769342 389.947006,452.473475 389.178849,452.857554 C387.9626,453.497685 386.298284,453.817746 384.185851,453.817746 L349.618945,453.817746 C345.138027,453.817746 342.513529,452.601515 341.745372,450.169017 C341.361293,449.144807 341.169257,447.512497 341.169257,445.272038 L341.169257,391.885372 C341.169257,390.41307 341.217266,389.308861 341.313285,388.57271 C341.409305,387.836559 341.713363,386.988398 342.225468,386.028201 C343.121651,384.299847 345.618125,383.435683 349.714964,383.435683 C354.195882,383.435683 356.852386,384.619908 357.684556,386.988393 C358.004622,388.076616 358.164652,389.740932 358.164652,391.981391 L358.164652,439.606906 Z" id="SCHOOL" fill-rule="nonzero"></path>
                    <g id="Paw">
                        <path d="M187.960295,344.730692 C160.334908,352.132893 112.522232,388.72871 87.401411,338.06944 C76.6984814,298.125563 124.834772,201.257726 175.87604,187.581259 C226.917308,173.904793 316.000897,276.816392 312.05757,321.211438 C308.700921,376.318506 203.782654,340.491104 187.960295,344.730692 Z M80.3210335,264.543294 C58.307173,276.212946 26.9526835,260.343721 10.2887442,229.098399 C-6.37506516,197.853009 -2.03805411,163.063503 19.9757826,151.393806 C41.989643,139.724154 73.3441325,155.59338 90.0080719,186.838701 C106.671881,218.084092 102.33487,252.873598 80.3210335,264.543294 Z M293.687148,223.073497 C269.63195,216.691564 257.638489,183.77648 266.898752,149.555429 C276.15957,115.334527 303.167333,92.7664462 327.222583,99.1481883 C351.277782,105.530121 363.271242,138.445206 354.01098,172.666256 C344.750162,206.887158 317.742398,229.455239 293.687148,223.073497 Z M132.641582,153.723631 C109.218556,162.235774 79.2544973,139.026751 65.7149702,101.884828 C52.1754701,64.7428949 60.1876395,27.7329549 83.6106638,19.2208049 C107.03369,10.7086617 136.997749,33.9176852 150.537276,71.0596082 C164.076776,108.201541 156.064606,145.211481 132.641582,153.723631 Z M216.326299,143.705782 C191.448979,142.443821 173.01398,109.403789 175.150414,69.9087565 C177.287178,30.413741 199.186288,-0.580313336 224.063612,0.681566328 C248.940932,1.94352756 267.37593,34.9835592 265.239496,74.478592 C263.102732,113.973607 241.203623,144.967662 216.326299,143.705782 Z M168.92453,276.191951 C170.085869,278.559297 170.66653,281.194603 170.66653,284.097951 C170.66653,287.001299 170.085869,289.62544 168.92453,291.970451 C167.763191,294.315463 166.266872,296.180278 164.43553,297.564951 C160.728178,300.423632 156.886883,301.852951 152.91153,301.852951 L144.53653,301.852951 L144.53653,309.423951 C144.53653,310.45129 144.50303,311.221782 144.43603,311.735451 C144.369029,312.249121 144.156865,312.840948 143.79953,313.510951 C143.174193,314.716957 141.432211,315.319951 138.57353,315.319951 C135.446847,315.319951 133.615532,314.493626 133.07953,312.840951 C132.811528,312.081614 132.67753,310.920292 132.67753,309.356951 L132.67753,272.171951 C132.67753,271.144613 132.711029,270.374121 132.77803,269.860451 C132.84503,269.346782 133.057195,268.754955 133.41453,268.084951 C134.039866,266.878945 135.781849,266.275951 138.64053,266.275951 L152.97853,266.275951 C156.909216,266.275951 160.728178,267.70527 164.43553,270.563951 C166.266872,271.948625 167.763191,273.824606 168.92453,276.191951 Z M152.97853,289.993951 C154.318536,289.993951 155.63619,289.502623 156.93153,288.519951 C158.226869,287.53728 158.87453,286.063295 158.87453,284.097951 C158.87453,282.132608 158.226869,280.647456 156.93153,279.642451 C155.63619,278.637446 154.296203,278.134951 152.91153,278.134951 L144.53653,278.134951 L144.53653,289.993951 L152.97853,289.993951 Z M207.11453,268.084951 C207.561199,267.370281 208.208859,266.878953 209.05753,266.610951 C209.906201,266.34295 210.967023,266.208951 212.24003,266.208951 C213.513036,266.208951 214.529193,266.320617 215.28853,266.543951 C216.047867,266.767286 216.628528,267.035283 217.03053,267.347951 C217.432532,267.66062 217.722862,268.129615 217.90153,268.754951 C218.169531,269.514288 218.30353,270.67561 218.30353,272.238951 L218.30353,292.472951 C218.30353,298.368981 216.472215,303.728927 212.80953,308.552951 C211.022854,310.830963 208.722544,312.673444 205.90853,314.080451 C203.094516,315.487458 199.979047,316.190951 196.56203,316.190951 C193.145013,316.190951 190.04071,315.476292 187.24903,314.046951 C184.457349,312.617611 182.190538,310.74163 180.44853,308.418951 C176.830512,303.684261 175.02153,298.324315 175.02153,292.338951 L175.02153,272.171951 C175.02153,271.099946 175.055029,270.307121 175.12203,269.793451 C175.18903,269.279782 175.401195,268.687955 175.75853,268.017951 C176.115865,267.347948 176.718859,266.878953 177.56753,266.610951 C178.416201,266.34295 179.555189,266.208951 180.98453,266.208951 C182.41387,266.208951 183.552859,266.34295 184.40153,266.610951 C185.250201,266.878953 185.830861,267.347948 186.14353,268.017951 C186.679532,269.04529 186.94753,270.452276 186.94753,272.238951 L186.94753,292.338951 C186.94753,295.063632 187.617523,297.654272 188.95753,300.110951 C189.627533,301.361624 190.632523,302.366614 191.97253,303.125951 C193.312536,303.885288 194.898187,304.264951 196.72953,304.264951 C199.990213,304.264951 202.424522,303.058963 204.03253,300.646951 C205.640538,298.234939 206.44453,295.443301 206.44453,292.271951 L206.44453,271.769951 C206.44453,270.027943 206.667861,268.799622 207.11453,268.084951 Z M259.91053,276.191951 C261.071869,278.559297 261.65253,281.194603 261.65253,284.097951 C261.65253,287.001299 261.071869,289.62544 259.91053,291.970451 C258.749191,294.315463 257.252872,296.180278 255.42153,297.564951 C251.714178,300.423632 247.872883,301.852951 243.89753,301.852951 L235.52253,301.852951 L235.52253,309.423951 C235.52253,310.45129 235.48903,311.221782 235.42203,311.735451 C235.355029,312.249121 235.142865,312.840948 234.78553,313.510951 C234.160193,314.716957 232.418211,315.319951 229.55953,315.319951 C226.432847,315.319951 224.601532,314.493626 224.06553,312.840951 C223.797528,312.081614 223.66353,310.920292 223.66353,309.356951 L223.66353,272.171951 C223.66353,271.144613 223.697029,270.374121 223.76403,269.860451 C223.83103,269.346782 224.043195,268.754955 224.40053,268.084951 C225.025866,266.878945 226.767849,266.275951 229.62653,266.275951 L243.96453,266.275951 C247.895216,266.275951 251.714178,267.70527 255.42153,270.563951 C257.252872,271.948625 258.749191,273.824606 259.91053,276.191951 Z M243.96453,289.993951 C245.304536,289.993951 246.62219,289.502623 247.91753,288.519951 C249.212869,287.53728 249.86053,286.063295 249.86053,284.097951 C249.86053,282.132608 249.212869,280.647456 247.91753,279.642451 C246.62219,278.637446 245.282203,278.134951 243.89753,278.134951 L235.52253,278.134951 L235.52253,289.993951 L243.96453,289.993951 Z" id="Combined-Shape"></path>
                    </g>
                </g>
            </g>
        </g>
    </g>
</svg>