<?xml version="1.0" encoding="UTF-8"?>
<svg width="96px" height="77px" viewBox="0 0 96 77" version="1.1" xmlns="http://www.w3.org/2000/svg" xmlns:xlink="http://www.w3.org/1999/xlink">
    <!-- Generator: Sketch 55.2 (78181) - https://sketchapp.com -->
    <title>“</title>
    <desc>Created with Sketch.</desc>
    <defs>
        <path d="M32.9,87.94 C37.7400242,88.3800022 41.4066542,89.8466542 43.9,92.34 C46.3933458,94.8333458 47.64,99.0866366 47.64,105.1 L47.64,108.4 C47.64,111.920018 47.5300011,114.559991 47.31,116.32 C47.0899989,118.080009 46.3933392,120.133322 45.22,122.48 C43.019989,126.733355 37.4467114,128.86 28.5,128.86 C19.5532886,128.86 13.6500143,127.393348 10.79,124.46 C7.9299857,121.526652 6.5,115.953374 6.5,107.74 C6.5,104.073315 6.6466652,101.360009 6.94,99.6 C7.9666718,86.6932688 11.779967,75.6567125 18.38,66.49 C24.980033,57.3232875 33.3399494,52.74 43.46,52.74 C44.4866718,52.74 45.4033293,53.5099923 46.21,55.05 C47.0166707,56.5900077 47.42,58.5699879 47.42,60.99 C47.42,63.4100121 47.0900033,65.353326 46.43,66.82 C45.7699967,68.286674 45.0366707,69.1299989 44.23,69.35 C43.4233293,69.5700011 42.8000022,69.7166663 42.36,69.79 C41.9199978,69.8633337 41.1500055,70.2299967 40.05,70.89 C38.9499945,71.5500033 37.9600044,72.4666608 37.08,73.64 C34.5866542,76.573348 33.1933348,81.339967 32.9,87.94 Z M86.58,87.94 C91.4200242,88.3800022 95.1233205,89.8833205 97.69,92.45 C100.25668,95.0166795 101.54,100.333293 101.54,108.4 C101.54,117.053377 100.000015,122.553322 96.92,124.9 C93.253315,127.540013 87.6433711,128.86 80.09,128.86 C72.5366289,128.86 67.3300143,127.393348 64.47,124.46 C61.6099857,121.526652 60.18,115.953374 60.18,107.74 C60.18,104.073315 60.3266652,101.360009 60.62,99.6 C61.6466718,86.6932688 65.4966333,75.6567125 72.17,66.49 C78.8433667,57.3232875 87.2399494,52.74 97.36,52.74 C98.3866718,52.74 99.3033293,53.5099923 100.11,55.05 C100.916671,56.5900077 101.32,58.5699879 101.32,60.99 C101.32,63.4100121 100.990003,65.353326 100.33,66.82 C99.6699967,68.286674 98.9366707,69.1299989 98.13,69.35 C97.3233293,69.5700011 96.7000022,69.7166663 96.26,69.79 C95.8199978,69.8633337 95.0133392,70.2299967 93.84,70.89 C92.6666608,71.5500033 91.6400044,72.4666608 90.76,73.64 C88.2666542,76.573348 86.8733348,81.339967 86.58,87.94 Z" id="path-1"></path>
    </defs>
    <g id="Welcome" stroke="none" stroke-width="1" fill="none" fill-rule="evenodd">
        <g id="Desktop-HD" transform="translate(-172.000000, -916.000000)" fill-rule="nonzero">
            <g id="Testimonials" transform="translate(166.000000, 864.000000)">
                <g id="“">
                    <use fill="#4A4A4A" xlink:href="#path-1"></use>
                    <use fill="#0094FF" xlink:href="#path-1"></use>
                </g>
            </g>
        </g>
    </g>
</svg>